<?xml version="1.0" encoding="utf-8"?>
<!-- Generator: Adobe Illustrator 16.0.0, SVG Export Plug-In . SVG Version: 6.00 Build 0)  -->
<!DOCTYPE svg PUBLIC "-//W3C//DTD SVG 1.1//EN" "http://www.w3.org/Graphics/SVG/1.1/DTD/svg11.dtd">
<svg version="1.1" id="Layer_1" xmlns="http://www.w3.org/2000/svg" xmlns:xlink="http://www.w3.org/1999/xlink" x="0px" y="0px"
	 width="504.85px" height="120.425px" viewBox="0 0 504.85 120.425" enable-background="new 0 0 504.85 120.425"
	 xml:space="preserve">
<g>
	<path fill="#FFFFFF" d="M90.625,36.479v10.866h13.944v7.529H90.625v11.587h17.086v7.724H79.89V28.818h27.821l-1.113,7.66H90.625z"
		/>
	<path fill="#FFFFFF" d="M143.716,37.067v37.118h-10.737V37.067h-11.718v-8.249h34.697l-1.049,8.249H143.716z"/>
	<path fill="#FFFFFF" d="M199.49,32.55c3.316,2.488,4.976,6.176,4.976,11.063c0,5.106-1.627,8.958-4.877,11.555
		c-3.252,2.597-7.605,3.896-13.06,3.896h-4.91v15.122h-10.736V28.818h14.663C191.525,28.818,196.173,30.062,199.49,32.55z
		 M191.406,49.539c1.331-1.201,1.996-3.175,1.996-5.925c0-4.757-2.663-7.135-7.986-7.135h-3.797v14.86h3.993
		C188.142,51.338,190.074,50.74,191.406,49.539z"/>
	<path fill="#FFFFFF" d="M231.502,54.742v19.443h-10.736V28.818h10.736v17.545h13.617V28.818h10.735v45.367h-10.735V54.742H231.502z
		"/>
	<path fill="#FFFFFF" d="M308.388,33.926c3.602,4.146,5.4,9.995,5.4,17.543c0,4.933-0.817,9.188-2.455,12.766
		c-1.637,3.58-3.992,6.317-7.068,8.216c-3.077,1.898-6.733,2.847-10.967,2.847s-7.877-0.938-10.932-2.812
		c-3.056-1.879-5.4-4.594-7.037-8.152c-1.638-3.557-2.455-7.844-2.455-12.864c0-4.886,0.817-9.12,2.455-12.7
		c1.637-3.578,3.981-6.317,7.037-8.216c3.055-1.898,6.698-2.847,10.932-2.847C299.759,27.706,304.786,29.779,308.388,33.926z
		 M286.393,39.326c-1.505,2.51-2.26,6.558-2.26,12.144c0,5.588,0.764,9.646,2.292,12.177c1.526,2.531,3.818,3.796,6.873,3.796
		c3.143,0,5.467-1.253,6.972-3.765c1.507-2.509,2.26-6.579,2.26-12.209c0-5.629-0.766-9.688-2.291-12.175
		c-1.529-2.489-3.84-3.732-6.94-3.732C290.2,35.562,287.897,36.817,286.393,39.326z"/>
	<path fill="#FFFFFF" d="M348.223,37.067v37.118h-10.737V37.067h-11.718v-8.249h34.695l-1.047,8.249H348.223z"/>
	<path fill="#FFFFFF" d="M406.45,33.926c3.602,4.146,5.401,9.995,5.401,17.543c0,4.933-0.816,9.188-2.455,12.766
		c-1.636,3.58-3.992,6.317-7.068,8.216s-6.734,2.847-10.968,2.847c-4.231,0-7.876-0.938-10.931-2.812
		c-3.055-1.879-5.401-4.594-7.037-8.152c-1.639-3.557-2.455-7.844-2.455-12.864c0-4.886,0.816-9.12,2.455-12.7
		c1.636-3.578,3.982-6.317,7.037-8.216c3.055-1.898,6.699-2.847,10.931-2.847C397.822,27.706,402.851,29.779,406.45,33.926z
		 M384.456,39.326c-1.505,2.51-2.26,6.558-2.26,12.144c0,5.588,0.763,9.646,2.291,12.177c1.527,2.531,3.818,3.796,6.873,3.796
		c3.145,0,5.468-1.253,6.974-3.765c1.507-2.509,2.258-6.579,2.258-12.209c0-5.629-0.765-9.688-2.291-12.175
		c-1.528-2.489-3.84-3.732-6.94-3.732C388.264,35.562,385.961,36.817,384.456,39.326z"/>
	<path fill="#FFFFFF" d="M452.016,29.146c2.508,0.96,4.788,2.422,6.84,4.385l-5.041,5.826c-3.055-2.53-6.351-3.796-9.885-3.796
		c-1.877,0-3.36,0.383-4.453,1.146c-1.09,0.765-1.636,1.866-1.636,3.306c0,1.005,0.24,1.823,0.721,2.455
		c0.479,0.633,1.33,1.234,2.554,1.8c1.221,0.568,3.054,1.244,5.499,2.03c4.624,1.485,8.03,3.307,10.212,5.466
		c2.183,2.161,3.272,5.228,3.272,9.198c0,2.838-0.721,5.335-2.161,7.494c-1.438,2.164-3.512,3.842-6.218,5.044
		c-2.706,1.2-5.914,1.798-9.622,1.798c-3.711,0-6.995-0.589-9.853-1.768c-2.859-1.179-5.314-2.748-7.365-4.713l5.5-6.023
		c3.359,3.013,7.156,4.517,11.39,4.517c2.227,0,3.98-0.49,5.271-1.473c1.286-0.981,1.931-2.345,1.931-4.091
		c0-1.135-0.24-2.084-0.721-2.848c-0.481-0.764-1.309-1.451-2.486-2.063c-1.179-0.61-2.881-1.265-5.106-1.963
		c-5.02-1.527-8.589-3.405-10.703-5.63c-2.119-2.226-3.176-5.041-3.176-8.445c0-2.619,0.698-4.92,2.096-6.907
		c1.396-1.985,3.337-3.513,5.826-4.582c2.487-1.069,5.302-1.604,8.444-1.604C446.548,27.706,449.505,28.187,452.016,29.146z"/>
</g>
<path fill="#FFFFFF" d="M55.238,106.364c-1.288,2.359-2.989,4.201-5.104,5.531c-2.119,1.334-4.639,2.478-7.563,3.438l-2.88-7.593
	c1.92-0.744,3.359-1.594,4.319-2.554c0.96-0.962,1.605-2.075,1.932-3.34c0.326-1.264,0.492-2.881,0.492-4.844V28.083h10.737v69.314
	C57.171,101.018,56.526,104.011,55.238,106.364"/>
<g>
	<path fill="#FFFFFF" d="M473.023,110.073h-10.001V99.065h10.001c11.674,0,20.819-9.417,20.819-21.439V32.363
		c0-11.976-9.146-21.356-20.819-21.356H39.268c-12.444,0-23.361,10-23.361,21.4H4.899C4.899,14.841,20.638,0,39.268,0h433.755
		c17.846,0,31.826,14.215,31.826,32.363v45.263C504.85,95.819,490.869,110.073,473.023,110.073z"/>
</g>
<g>
	<path fill="#FFFFFF" d="M134.29,92.522c0.92,0.475,1.624,1.116,2.11,1.922c0.486,0.809,0.729,1.688,0.729,2.64
		c0,1.262-0.367,2.302-1.101,3.119c-0.735,0.818-1.712,1.369-2.934,1.662c1.386,0.122,2.515,0.619,3.383,1.488
		c0.87,0.868,1.304,2.051,1.304,3.537c0,1.2-0.29,2.288-0.869,3.26c-0.581,0.974-1.408,1.733-2.483,2.284
		c-1.077,0.545-2.319,0.82-3.726,0.82c-1.261,0-2.42-0.231-3.476-0.697c-1.056-0.465-1.976-1.165-2.763-2.096l1.738-1.614
		c1.242,1.387,2.711,2.081,4.408,2.081c1.304,0,2.328-0.37,3.072-1.103c0.746-0.732,1.118-1.723,1.118-2.965
		c0-1.367-0.353-2.328-1.055-2.887c-0.703-0.558-1.728-0.837-3.074-0.837h-1.551l0.341-2.206h1.056c1.076,0,1.971-0.319,2.686-0.963
		c0.713-0.64,1.07-1.539,1.07-2.7c0-0.972-0.311-1.741-0.931-2.312c-0.622-0.569-1.459-0.853-2.515-0.853
		c-0.807,0-1.546,0.144-2.22,0.434c-0.673,0.29-1.361,0.766-2.064,1.427l-1.49-1.707c1.758-1.634,3.734-2.451,5.929-2.451
		C132.267,91.808,133.368,92.044,134.29,92.522z"/>
	<path fill="#FFFFFF" d="M169.721,97.503c0.807,0.901,1.21,2.116,1.21,3.647v11.732h-2.855v-11.329c0-2.112-0.767-3.167-2.297-3.167
		c-0.807,0-1.49,0.231-2.049,0.699c-0.559,0.467-1.158,1.195-1.8,2.188v11.608h-2.856v-11.329c0-2.112-0.766-3.167-2.296-3.167
		c-0.829,0-1.521,0.238-2.08,0.713c-0.559,0.478-1.149,1.2-1.77,2.175v11.608h-2.856V96.525h2.453l0.249,2.39
		c1.22-1.842,2.792-2.765,4.718-2.765c1.014,0,1.878,0.261,2.592,0.779c0.714,0.516,1.227,1.239,1.536,2.17
		c0.643-0.949,1.351-1.681,2.126-2.188c0.776-0.508,1.692-0.762,2.748-0.762C167.838,96.15,168.914,96.603,169.721,97.503z"/>
	<path fill="#FFFFFF" d="M179.219,89.23c0.372,0.372,0.559,0.836,0.559,1.395s-0.187,1.021-0.559,1.383
		c-0.373,0.363-0.859,0.544-1.459,0.544c-0.579,0-1.055-0.181-1.428-0.544c-0.372-0.362-0.558-0.825-0.558-1.383
		s0.186-1.023,0.558-1.395c0.373-0.373,0.849-0.559,1.428-0.559C178.36,88.672,178.846,88.858,179.219,89.23z M176.363,112.883
		V96.525h2.856v16.357H176.363z"/>
	<path fill="#FFFFFF" d="M187.771,110.584c0.155,0.209,0.419,0.312,0.791,0.312c0.393,0,0.746-0.062,1.056-0.188l0.745,1.987
		c-0.766,0.374-1.573,0.559-2.42,0.559c-1.056,0-1.863-0.305-2.421-0.916c-0.559-0.61-0.838-1.505-0.838-2.683V89.944l2.856-0.342
		v19.989C187.538,110.047,187.615,110.378,187.771,110.584z"/>
	<path fill="#FFFFFF" d="M196.586,110.584c0.154,0.209,0.419,0.312,0.791,0.312c0.394,0,0.746-0.062,1.056-0.188l0.745,1.987
		c-0.765,0.374-1.572,0.559-2.42,0.559c-1.056,0-1.863-0.305-2.421-0.916c-0.559-0.61-0.839-1.505-0.839-2.683V89.944l2.856-0.342
		v19.989C196.353,110.047,196.431,110.378,196.586,110.584z"/>
	<path fill="#FFFFFF" d="M205.292,89.23c0.372,0.372,0.559,0.836,0.559,1.395s-0.187,1.021-0.559,1.383
		c-0.373,0.363-0.859,0.544-1.459,0.544c-0.579,0-1.055-0.181-1.428-0.544c-0.372-0.362-0.558-0.825-0.558-1.383
		s0.187-1.023,0.558-1.395c0.373-0.373,0.849-0.559,1.428-0.559C204.434,88.672,204.919,88.858,205.292,89.23z M202.437,112.883
		V96.525h2.856v16.357H202.437z"/>
	<path fill="#FFFFFF" d="M222.412,98.448c1.272,1.533,1.909,3.612,1.909,6.241c0,1.695-0.291,3.191-0.87,4.485
		c-0.579,1.294-1.417,2.295-2.514,3.01c-1.097,0.714-2.4,1.07-3.911,1.07c-2.297,0-4.087-0.765-5.371-2.296
		c-1.283-1.53-1.924-3.611-1.924-6.238c0-1.698,0.29-3.193,0.87-4.484c0.578-1.295,1.417-2.299,2.514-3.013
		c1.096-0.716,2.41-1.073,3.941-1.073C219.355,96.15,221.139,96.919,222.412,98.448z M212.805,104.721
		c0,4.157,1.407,6.238,4.221,6.238c2.814,0,4.221-2.09,4.221-6.27c0-4.161-1.396-6.241-4.19-6.241
		C214.222,98.448,212.805,100.54,212.805,104.721z"/>
	<path fill="#FFFFFF" d="M239.949,97.488c0.838,0.89,1.258,2.11,1.258,3.662v11.732h-2.856v-11.329c0-1.159-0.217-1.977-0.652-2.454
		c-0.436-0.475-1.076-0.713-1.925-0.713c-0.869,0-1.635,0.249-2.296,0.746c-0.663,0.496-1.283,1.211-1.863,2.142v11.608h-2.856
		V96.525h2.453l0.248,2.42c0.579-0.868,1.297-1.552,2.157-2.049c0.858-0.496,1.806-0.746,2.841-0.746
		C237.948,96.15,239.112,96.599,239.949,97.488z"/>
	<path fill="#FFFFFF" d="M257.286,101.429v2.358h-4.533v4.627h-2.607v-4.627h-4.501v-2.358h4.501v-4.655h2.607v4.655H257.286z"/>
</g>
<g>
	<path fill="#FFFFFF" d="M271.161,116.051V87.833h2.577v28.218H271.161z"/>
</g>
<g>
	<path fill="#FFFFFF" d="M290.125,107.512l-1.613,5.371h-2.979l6.858-21.386h3.726l6.83,21.386h-3.104l-1.614-5.371H290.125z
		 M294.192,93.949l-3.353,11.176h6.674L294.192,93.949z"/>
	<path fill="#FFFFFF" d="M308.704,110.584c0.154,0.209,0.419,0.312,0.791,0.312c0.393,0,0.745-0.062,1.056-0.188l0.746,1.987
		c-0.768,0.374-1.574,0.559-2.424,0.559c-1.053,0-1.861-0.305-2.42-0.916c-0.56-0.61-0.839-1.505-0.839-2.683V89.944l2.857-0.342
		v19.989C308.472,110.047,308.549,110.378,308.704,110.584z"/>
	<path fill="#FFFFFF" d="M317.519,110.584c0.154,0.209,0.419,0.312,0.791,0.312c0.393,0,0.746-0.062,1.056-0.188l0.746,1.987
		c-0.768,0.374-1.574,0.559-2.424,0.559c-1.053,0-1.861-0.305-2.42-0.916c-0.56-0.61-0.839-1.505-0.839-2.683V89.944l2.857-0.342
		v19.989C317.286,110.047,317.363,110.378,317.519,110.584z"/>
	<path fill="#FFFFFF" d="M338.766,96.62c0.89,0.31,1.736,0.774,2.545,1.395l-1.243,1.894c-0.724-0.517-1.423-0.894-2.094-1.134
		c-0.673-0.237-1.382-0.358-2.126-0.358c-0.933,0-1.666,0.194-2.203,0.576c-0.54,0.383-0.809,0.906-0.809,1.568
		s0.254,1.18,0.761,1.552c0.508,0.372,1.423,0.733,2.748,1.085c1.82,0.457,3.182,1.078,4.08,1.862c0.9,0.787,1.35,1.864,1.35,3.229
		c0,1.614-0.625,2.846-1.876,3.693c-1.254,0.85-2.777,1.272-4.579,1.272c-2.483,0-4.543-0.714-6.177-2.142l1.582-1.801
		c1.283,1.099,2.795,1.646,4.532,1.646c1.056,0,1.904-0.219,2.546-0.654c0.64-0.434,0.963-1.012,0.963-1.736
		c0-0.58-0.114-1.05-0.342-1.413c-0.229-0.36-0.617-0.673-1.163-0.931c-0.551-0.258-1.372-0.533-2.469-0.82
		c-1.739-0.456-2.996-1.073-3.772-1.849c-0.774-0.774-1.163-1.755-1.163-2.933c0-0.85,0.253-1.615,0.761-2.297
		c0.507-0.684,1.21-1.217,2.111-1.599c0.898-0.383,1.909-0.577,3.025-0.577C336.871,96.15,337.875,96.307,338.766,96.62z"/>
	<path fill="#FFFFFF" d="M354.16,96.572c0.809,0.28,1.584,0.729,2.329,1.35l-1.396,1.861c-0.56-0.434-1.107-0.756-1.647-0.963
		c-0.537-0.206-1.148-0.31-1.829-0.31c-1.326,0-2.356,0.529-3.09,1.583c-0.735,1.057-1.103,2.618-1.103,4.687
		c0,2.071,0.363,3.597,1.088,4.579c0.725,0.984,1.759,1.475,3.104,1.475c0.66,0,1.256-0.104,1.783-0.31s1.102-0.551,1.723-1.025
		l1.366,1.956c-1.491,1.2-3.156,1.8-4.997,1.8c-2.214,0-3.958-0.743-5.23-2.235c-1.273-1.488-1.909-3.547-1.909-6.176
		c0-1.738,0.29-3.258,0.869-4.562c0.58-1.305,1.401-2.318,2.468-3.043c1.065-0.724,2.333-1.088,3.803-1.088
		C352.465,96.15,353.354,96.292,354.16,96.572z"/>
	<path fill="#FFFFFF" d="M368.782,96.34l-0.529,2.792c-0.496-0.125-0.973-0.188-1.428-0.188c-1.015,0-1.832,0.374-2.451,1.117
		c-0.621,0.745-1.107,1.906-1.46,3.477v9.344h-2.854V96.525h2.45l0.28,3.32c0.434-1.221,1.025-2.143,1.77-2.762
		c0.746-0.621,1.614-0.934,2.607-0.934C367.746,96.15,368.284,96.215,368.782,96.34z"/>
	<path fill="#FFFFFF" d="M383.743,105.684h-10.43c0.125,1.797,0.578,3.124,1.365,3.973c0.786,0.847,1.801,1.272,3.042,1.272
		c0.787,0,1.511-0.115,2.173-0.345c0.662-0.227,1.354-0.588,2.079-1.085l1.243,1.709c-1.739,1.363-3.643,2.047-5.712,2.047
		c-2.277,0-4.051-0.743-5.324-2.235c-1.272-1.488-1.908-3.539-1.908-6.145c0-1.698,0.272-3.203,0.823-4.517
		c0.548-1.314,1.333-2.344,2.358-3.09c1.023-0.743,2.229-1.118,3.616-1.118c2.173,0,3.838,0.717,4.998,2.144
		c1.156,1.427,1.736,3.403,1.736,5.928C383.804,104.699,383.782,105.185,383.743,105.684z M380.979,103.385
		c0-1.614-0.319-2.845-0.961-3.695c-0.643-0.848-1.604-1.273-2.887-1.273c-2.34,0-3.612,1.72-3.818,5.156h7.666V103.385z"/>
	<path fill="#FFFFFF" d="M400.535,105.684h-10.43c0.125,1.797,0.578,3.124,1.365,3.973c0.786,0.847,1.801,1.272,3.042,1.272
		c0.787,0,1.511-0.115,2.173-0.345c0.663-0.227,1.355-0.588,2.08-1.085l1.242,1.709c-1.739,1.363-3.641,2.047-5.712,2.047
		c-2.276,0-4.051-0.743-5.323-2.235c-1.271-1.488-1.909-3.539-1.909-6.145c0-1.698,0.272-3.203,0.823-4.517
		c0.548-1.314,1.333-2.344,2.358-3.09c1.024-0.743,2.23-1.118,3.616-1.118c2.174,0,3.838,0.717,4.999,2.144
		c1.156,1.427,1.737,3.403,1.737,5.928C400.598,104.699,400.576,105.185,400.535,105.684z M397.772,103.385
		c0-1.614-0.32-2.845-0.962-3.695c-0.642-0.848-1.604-1.273-2.887-1.273c-2.34,0-3.611,1.72-3.818,5.156h7.667V103.385z"/>
	<path fill="#FFFFFF" d="M416.226,97.488c0.837,0.89,1.256,2.11,1.256,3.662v11.732h-2.854v-11.329c0-1.159-0.218-1.977-0.651-2.454
		c-0.435-0.475-1.077-0.713-1.925-0.713c-0.869,0-1.636,0.249-2.298,0.746c-0.662,0.496-1.283,1.211-1.862,2.142v11.608h-2.854
		V96.525h2.451l0.248,2.42c0.579-0.868,1.299-1.552,2.156-2.049c0.86-0.496,1.806-0.746,2.841-0.746
		C414.223,96.15,415.388,96.599,416.226,97.488z"/>
	<path fill="#FFFFFF" d="M435.206,105.684h-10.43c0.125,1.797,0.578,3.124,1.366,3.973c0.785,0.847,1.801,1.272,3.041,1.272
		c0.786,0,1.511-0.115,2.174-0.345c0.662-0.227,1.354-0.588,2.078-1.085l1.244,1.709c-1.74,1.363-3.644,2.047-5.713,2.047
		c-2.276,0-4.051-0.743-5.323-2.235c-1.273-1.488-1.909-3.539-1.909-6.145c0-1.698,0.272-3.203,0.823-4.517
		c0.548-1.314,1.333-2.344,2.358-3.09c1.024-0.743,2.229-1.118,3.616-1.118c2.173,0,3.837,0.717,4.998,2.144
		c1.157,1.427,1.737,3.403,1.737,5.928C435.268,104.699,435.246,105.185,435.206,105.684z M432.442,103.385
		c0-1.614-0.319-2.845-0.96-3.695c-0.643-0.848-1.604-1.273-2.888-1.273c-2.34,0-3.612,1.72-3.818,5.156h7.666V103.385z"/>
	<path fill="#FFFFFF" d="M452.369,112.883h-2.513l-0.279-2.266c-0.537,0.828-1.21,1.476-2.018,1.94
		c-0.807,0.466-1.709,0.697-2.702,0.697c-1.943,0-3.458-0.765-4.546-2.296c-1.087-1.53-1.63-3.591-1.63-6.179
		c0-1.675,0.258-3.165,0.776-4.468c0.519-1.305,1.262-2.323,2.235-3.059c0.973-0.732,2.109-1.104,3.414-1.104
		c1.677,0,3.146,0.676,4.407,2.019v-8.566l2.854,0.342V112.883z M447.716,110.382c0.618-0.401,1.221-1.005,1.799-1.813v-8.008
		c-0.537-0.704-1.111-1.237-1.722-1.598c-0.61-0.363-1.298-0.547-2.064-0.547c-1.264,0-2.239,0.529-2.934,1.586
		c-0.693,1.055-1.039,2.629-1.039,4.719c0,2.11,0.32,3.683,0.96,4.716c0.642,1.036,1.564,1.552,2.764,1.552
		C446.349,110.988,447.095,110.786,447.716,110.382z"/>
</g>
<path fill="#FFFFFF" d="M73.817,103.357c-0.004,1.41,2.116,2.58,3.595,2.519l8.152,0.014l7.396,14.535l5.25-0.062l-3.076-14.589
	l9.003-0.054l2.579,5.731l2.743-0.083l-1.075-8.144l1.2-8.217l-2.734,0.06l-2.764,5.721l-9.021,0.049l3.5-14.724l-5.25,0.05
	l-7.735,14.559l-8.15,0.149C76.027,100.847,73.822,101.938,73.817,103.357"/>
</svg>
